<?xml version="1.0" encoding="UTF-8" standalone="no"?>
<!DOCTYPE svg PUBLIC "-//W3C//DTD SVG 1.1//EN"
 "http://www.w3.org/Graphics/SVG/1.1/DTD/svg11.dtd">
<!-- Generated by graphviz version 2.43.0 (0)
 -->
<!-- Title: G Pages: 1 -->
<svg width="386pt" height="371pt"
 viewBox="0.00 0.00 385.71 371.39" xmlns="http://www.w3.org/2000/svg" xmlns:xlink="http://www.w3.org/1999/xlink">
<g id="graph0" class="graph" transform="scale(1 1) rotate(0) translate(4 367.39)">
<title>G</title>
<polygon fill="white" stroke="transparent" points="-4,4 -4,-367.39 381.71,-367.39 381.71,4 -4,4"/>
<!-- system.ruby.network.routers0 -->
<g id="node1" class="node">
<title>system.ruby.network.routers0</title>
<path fill="#cce6fc" stroke="#000000" d="M108.99,-109.73C108.99,-109.73 138.99,-109.73 138.99,-109.73 144.99,-109.73 150.99,-115.73 150.99,-121.73 150.99,-121.73 150.99,-133.73 150.99,-133.73 150.99,-139.73 144.99,-145.73 138.99,-145.73 138.99,-145.73 108.99,-145.73 108.99,-145.73 102.99,-145.73 96.99,-139.73 96.99,-133.73 96.99,-133.73 96.99,-121.73 96.99,-121.73 96.99,-115.73 102.99,-109.73 108.99,-109.73"/>
<text text-anchor="middle" x="123.99" y="-124.03" font-family="Arial" font-size="14.00" fill="#000000">R 0</text>
</g>
<!-- system.ruby.network.routers6 -->
<g id="node7" class="node">
<title>system.ruby.network.routers6</title>
<path fill="#cce6fc" stroke="#000000" d="M174.17,-163.47C174.17,-163.47 204.17,-163.47 204.17,-163.47 210.17,-163.47 216.17,-169.47 216.17,-175.47 216.17,-175.47 216.17,-187.47 216.17,-187.47 216.17,-193.47 210.17,-199.47 204.17,-199.47 204.17,-199.47 174.17,-199.47 174.17,-199.47 168.17,-199.47 162.17,-193.47 162.17,-187.47 162.17,-187.47 162.17,-175.47 162.17,-175.47 162.17,-169.47 168.17,-163.47 174.17,-163.47"/>
<text text-anchor="middle" x="189.17" y="-177.77" font-family="Arial" font-size="14.00" fill="#000000">R 6</text>
</g>
<!-- system.ruby.network.routers0&#45;&#45;system.ruby.network.routers6 -->
<g id="edge1" class="edge">
<title>system.ruby.network.routers0&#45;&#45;system.ruby.network.routers6</title>
<path fill="none" stroke="#042d50" d="M136.65,-145.88C141.74,-150.84 147.84,-156.21 154.07,-161.27"/>
<polygon fill="#042d50" stroke="#042d50" points="151.92,-164.03 161.95,-167.44 156.24,-158.52 151.92,-164.03"/>
</g>
<!-- system.ruby.network.routers1 -->
<g id="node2" class="node">
<title>system.ruby.network.routers1</title>
<path fill="#cce6fc" stroke="#000000" d="M253.23,-133.77C253.23,-133.77 283.23,-133.77 283.23,-133.77 289.23,-133.77 295.23,-139.77 295.23,-145.77 295.23,-145.77 295.23,-157.77 295.23,-157.77 295.23,-163.77 289.23,-169.77 283.23,-169.77 283.23,-169.77 253.23,-169.77 253.23,-169.77 247.23,-169.77 241.23,-163.77 241.23,-157.77 241.23,-157.77 241.23,-145.77 241.23,-145.77 241.23,-139.77 247.23,-133.77 253.23,-133.77"/>
<text text-anchor="middle" x="268.23" y="-148.07" font-family="Arial" font-size="14.00" fill="#000000">R 1</text>
</g>
<!-- system.ruby.network.routers1&#45;&#45;system.ruby.network.routers6 -->
<g id="edge2" class="edge">
<title>system.ruby.network.routers1&#45;&#45;system.ruby.network.routers6</title>
<path fill="none" stroke="#042d50" d="M240.99,-155.24C236.15,-156.75 231.03,-158.52 225.98,-160.43"/>
<polygon fill="#042d50" stroke="#042d50" points="224.42,-157.28 216.42,-164.23 227,-163.79 224.42,-157.28"/>
</g>
<!-- system.ruby.network.routers2 -->
<g id="node3" class="node">
<title>system.ruby.network.routers2</title>
<path fill="#cce6fc" stroke="#000000" d="M188.16,-80.29C188.16,-80.29 218.16,-80.29 218.16,-80.29 224.16,-80.29 230.16,-86.29 230.16,-92.29 230.16,-92.29 230.16,-104.29 230.16,-104.29 230.16,-110.29 224.16,-116.29 218.16,-116.29 218.16,-116.29 188.16,-116.29 188.16,-116.29 182.16,-116.29 176.16,-110.29 176.16,-104.29 176.16,-104.29 176.16,-92.29 176.16,-92.29 176.16,-86.29 182.16,-80.29 188.16,-80.29"/>
<text text-anchor="middle" x="203.16" y="-94.59" font-family="Arial" font-size="14.00" fill="#000000">R 2</text>
</g>
<!-- system.ruby.network.routers2&#45;&#45;system.ruby.network.routers6 -->
<g id="edge3" class="edge">
<title>system.ruby.network.routers2&#45;&#45;system.ruby.network.routers6</title>
<path fill="none" stroke="#042d50" d="M194.19,-116.62C191.34,-127.36 188.83,-141.15 187.45,-153.25"/>
<polygon fill="#042d50" stroke="#042d50" points="183.95,-153.06 186.55,-163.33 190.93,-153.68 183.95,-153.06"/>
</g>
<!-- system.ruby.network.routers3 -->
<g id="node4" class="node">
<title>system.ruby.network.routers3</title>
<path fill="#cce6fc" stroke="#000000" d="M160.41,-246.75C160.41,-246.75 190.41,-246.75 190.41,-246.75 196.41,-246.75 202.41,-252.75 202.41,-258.75 202.41,-258.75 202.41,-270.75 202.41,-270.75 202.41,-276.75 196.41,-282.75 190.41,-282.75 190.41,-282.75 160.41,-282.75 160.41,-282.75 154.41,-282.75 148.41,-276.75 148.41,-270.75 148.41,-270.75 148.41,-258.75 148.41,-258.75 148.41,-252.75 154.41,-246.75 160.41,-246.75"/>
<text text-anchor="middle" x="175.41" y="-261.05" font-family="Arial" font-size="14.00" fill="#000000">R 3</text>
</g>
<!-- system.ruby.network.routers3&#45;&#45;system.ruby.network.routers6 -->
<g id="edge4" class="edge">
<title>system.ruby.network.routers3&#45;&#45;system.ruby.network.routers6</title>
<path fill="none" stroke="#042d50" d="M184.32,-246.38C187.14,-235.62 189.62,-221.81 190.96,-209.7"/>
<polygon fill="#042d50" stroke="#042d50" points="194.46,-209.87 191.84,-199.61 187.49,-209.27 194.46,-209.87"/>
</g>
<!-- system.ruby.network.routers4 -->
<g id="node5" class="node">
<title>system.ruby.network.routers4</title>
<path fill="#cce6fc" stroke="#000000" d="M94.98,-193.02C94.98,-193.02 124.98,-193.02 124.98,-193.02 130.98,-193.02 136.98,-199.02 136.98,-205.02 136.98,-205.02 136.98,-217.02 136.98,-217.02 136.98,-223.02 130.98,-229.02 124.98,-229.02 124.98,-229.02 94.98,-229.02 94.98,-229.02 88.98,-229.02 82.98,-223.02 82.98,-217.02 82.98,-217.02 82.98,-205.02 82.98,-205.02 82.98,-199.02 88.98,-193.02 94.98,-193.02"/>
<text text-anchor="middle" x="109.98" y="-207.32" font-family="Arial" font-size="14.00" fill="#000000">R 4</text>
</g>
<!-- system.ruby.network.routers4&#45;&#45;system.ruby.network.routers6 -->
<g id="edge5" class="edge">
<title>system.ruby.network.routers4&#45;&#45;system.ruby.network.routers6</title>
<path fill="none" stroke="#042d50" d="M137.25,-207.6C142.16,-206.08 147.34,-204.29 152.46,-202.37"/>
<polygon fill="#042d50" stroke="#042d50" points="154.13,-205.47 162.14,-198.54 151.55,-198.97 154.13,-205.47"/>
</g>
<!-- system.ruby.network.routers5 -->
<g id="node6" class="node">
<title>system.ruby.network.routers5</title>
<path fill="#cce6fc" stroke="#000000" d="M239.55,-216.89C239.55,-216.89 269.55,-216.89 269.55,-216.89 275.55,-216.89 281.55,-222.89 281.55,-228.89 281.55,-228.89 281.55,-240.89 281.55,-240.89 281.55,-246.89 275.55,-252.89 269.55,-252.89 269.55,-252.89 239.55,-252.89 239.55,-252.89 233.55,-252.89 227.55,-246.89 227.55,-240.89 227.55,-240.89 227.55,-228.89 227.55,-228.89 227.55,-222.89 233.55,-216.89 239.55,-216.89"/>
<text text-anchor="middle" x="254.55" y="-231.19" font-family="Arial" font-size="14.00" fill="#000000">R 5</text>
</g>
<!-- system.ruby.network.routers5&#45;&#45;system.ruby.network.routers6 -->
<g id="edge6" class="edge">
<title>system.ruby.network.routers5&#45;&#45;system.ruby.network.routers6</title>
<path fill="none" stroke="#042d50" d="M232.42,-216.8C228.16,-213.32 223.63,-209.62 219.17,-205.98"/>
<polygon fill="#042d50" stroke="#042d50" points="221.24,-203.15 211.28,-199.53 216.81,-208.57 221.24,-203.15"/>
</g>
<!-- system.ruby.network.routers6&#45;&#45;system.ruby.network.routers0 -->
<g id="edge7" class="edge">
<title>system.ruby.network.routers6&#45;&#45;system.ruby.network.routers0</title>
<path fill="none" stroke="#042d50" d="M176.51,-163.31C171.42,-158.36 165.31,-152.98 159.09,-147.93"/>
<polygon fill="#042d50" stroke="#042d50" points="161.24,-145.17 151.21,-141.76 156.92,-150.68 161.24,-145.17"/>
</g>
<!-- system.ruby.network.routers6&#45;&#45;system.ruby.network.routers1 -->
<g id="edge8" class="edge">
<title>system.ruby.network.routers6&#45;&#45;system.ruby.network.routers1</title>
<path fill="none" stroke="#042d50" d="M216.41,-177.99C221.25,-176.48 226.37,-174.71 231.42,-172.8"/>
<polygon fill="#042d50" stroke="#042d50" points="232.98,-175.95 240.98,-169 230.4,-169.44 232.98,-175.95"/>
</g>
<!-- system.ruby.network.routers6&#45;&#45;system.ruby.network.routers2 -->
<g id="edge9" class="edge">
<title>system.ruby.network.routers6&#45;&#45;system.ruby.network.routers2</title>
<path fill="none" stroke="#042d50" d="M198.13,-163.14C200.99,-152.39 203.5,-138.6 204.88,-126.5"/>
<polygon fill="#042d50" stroke="#042d50" points="208.38,-126.69 205.78,-116.42 201.4,-126.07 208.38,-126.69"/>
</g>
<!-- system.ruby.network.routers6&#45;&#45;system.ruby.network.routers3 -->
<g id="edge10" class="edge">
<title>system.ruby.network.routers6&#45;&#45;system.ruby.network.routers3</title>
<path fill="none" stroke="#042d50" d="M180.25,-199.84C177.43,-210.59 174.96,-224.4 173.61,-236.51"/>
<polygon fill="#042d50" stroke="#042d50" points="170.11,-236.34 172.74,-246.6 177.09,-236.94 170.11,-236.34"/>
</g>
<!-- system.ruby.network.routers6&#45;&#45;system.ruby.network.routers4 -->
<g id="edge11" class="edge">
<title>system.ruby.network.routers6&#45;&#45;system.ruby.network.routers4</title>
<path fill="none" stroke="#042d50" d="M161.9,-184.89C156.99,-186.41 151.81,-188.19 146.69,-190.12"/>
<polygon fill="#042d50" stroke="#042d50" points="145.02,-187.01 137.01,-193.95 147.6,-193.52 145.02,-187.01"/>
</g>
<!-- system.ruby.l1_cntrl0 -->
<g id="node8" class="node">
<title>system.ruby.l1_cntrl0</title>
<path fill="#e5bcd0" stroke="#000000" d="M41.72,-55.6C41.72,-55.6 85.72,-55.6 85.72,-55.6 91.72,-55.6 97.72,-61.6 97.72,-67.6 97.72,-67.6 97.72,-79.6 97.72,-79.6 97.72,-85.6 91.72,-91.6 85.72,-91.6 85.72,-91.6 41.72,-91.6 41.72,-91.6 35.72,-91.6 29.72,-85.6 29.72,-79.6 29.72,-79.6 29.72,-67.6 29.72,-67.6 29.72,-61.6 35.72,-55.6 41.72,-55.6"/>
<text text-anchor="middle" x="63.72" y="-69.9" font-family="Arial" font-size="14.00" fill="#000000">l1_cntrl0</text>
</g>
<!-- system.ruby.l1_cntrl0&#45;&#45;system.ruby.network.routers0 -->
<g id="edge12" class="edge">
<title>system.ruby.l1_cntrl0&#45;&#45;system.ruby.network.routers0</title>
<path fill="none" stroke="#381526" d="M91.25,-98.33C92.84,-99.75 94.43,-101.18 96.02,-102.61"/>
<polygon fill="#381526" stroke="#381526" points="93.57,-95.7 83.79,-91.62 88.89,-100.91 93.57,-95.7"/>
<polygon fill="#381526" stroke="#381526" points="94.02,-105.52 103.8,-109.6 98.7,-100.31 94.02,-105.52"/>
</g>
<!-- system.ruby.l1_cntrl1 -->
<g id="node9" class="node">
<title>system.ruby.l1_cntrl1</title>
<path fill="#e5bcd0" stroke="#000000" d="M321.71,-104.09C321.71,-104.09 365.71,-104.09 365.71,-104.09 371.71,-104.09 377.71,-110.09 377.71,-116.09 377.71,-116.09 377.71,-128.09 377.71,-128.09 377.71,-134.09 371.71,-140.09 365.71,-140.09 365.71,-140.09 321.71,-140.09 321.71,-140.09 315.71,-140.09 309.71,-134.09 309.71,-128.09 309.71,-128.09 309.71,-116.09 309.71,-116.09 309.71,-110.09 315.71,-104.09 321.71,-104.09"/>
<text text-anchor="middle" x="343.71" y="-118.39" font-family="Arial" font-size="14.00" fill="#000000">l1_cntrl1</text>
</g>
<!-- system.ruby.l1_cntrl1&#45;&#45;system.ruby.network.routers1 -->
<g id="edge13" class="edge">
<title>system.ruby.l1_cntrl1&#45;&#45;system.ruby.network.routers1</title>
<path fill="none" stroke="#381526" d="M299.84,-139.34C299.75,-139.38 299.66,-139.41 299.57,-139.45"/>
<polygon fill="#381526" stroke="#381526" points="301.48,-142.46 309.5,-135.54 298.91,-135.94 301.48,-142.46"/>
<polygon fill="#381526" stroke="#381526" points="303.56,-134.12 295.53,-141.03 306.12,-140.63 303.56,-134.12"/>
</g>
<!-- system.ruby.l1_cntrl2 -->
<g id="node10" class="node">
<title>system.ruby.l1_cntrl2</title>
<path fill="#e5bcd0" stroke="#000000" d="M195.69,-0.5C195.69,-0.5 239.69,-0.5 239.69,-0.5 245.69,-0.5 251.69,-6.5 251.69,-12.5 251.69,-12.5 251.69,-24.5 251.69,-24.5 251.69,-30.5 245.69,-36.5 239.69,-36.5 239.69,-36.5 195.69,-36.5 195.69,-36.5 189.69,-36.5 183.69,-30.5 183.69,-24.5 183.69,-24.5 183.69,-12.5 183.69,-12.5 183.69,-6.5 189.69,-0.5 195.69,-0.5"/>
<text text-anchor="middle" x="217.69" y="-14.8" font-family="Arial" font-size="14.00" fill="#000000">l1_cntrl2</text>
</g>
<!-- system.ruby.l1_cntrl2&#45;&#45;system.ruby.network.routers2 -->
<g id="edge14" class="edge">
<title>system.ruby.l1_cntrl2&#45;&#45;system.ruby.network.routers2</title>
<path fill="none" stroke="#381526" d="M212.54,-46.75C211.15,-54.42 209.64,-62.7 208.25,-70.35"/>
<polygon fill="#381526" stroke="#381526" points="216.04,-47.07 214.39,-36.6 209.16,-45.82 216.04,-47.07"/>
<polygon fill="#381526" stroke="#381526" points="204.79,-69.79 206.44,-80.25 211.68,-71.04 204.79,-69.79"/>
</g>
<!-- system.ruby.l1_cntrl3 -->
<g id="node11" class="node">
<title>system.ruby.l1_cntrl3</title>
<path fill="#e5bcd0" stroke="#000000" d="M141.92,-326.89C141.92,-326.89 185.92,-326.89 185.92,-326.89 191.92,-326.89 197.92,-332.89 197.92,-338.89 197.92,-338.89 197.92,-350.89 197.92,-350.89 197.92,-356.89 191.92,-362.89 185.92,-362.89 185.92,-362.89 141.92,-362.89 141.92,-362.89 135.92,-362.89 129.92,-356.89 129.92,-350.89 129.92,-350.89 129.92,-338.89 129.92,-338.89 129.92,-332.89 135.92,-326.89 141.92,-326.89"/>
<text text-anchor="middle" x="163.92" y="-341.19" font-family="Arial" font-size="14.00" fill="#000000">l1_cntrl3</text>
</g>
<!-- system.ruby.l1_cntrl3&#45;&#45;system.ruby.network.routers3 -->
<g id="edge15" class="edge">
<title>system.ruby.l1_cntrl3&#45;&#45;system.ruby.network.routers3</title>
<path fill="none" stroke="#381526" d="M167.99,-316.51C169.09,-308.81 170.29,-300.49 171.39,-292.81"/>
<polygon fill="#381526" stroke="#381526" points="164.48,-316.31 166.53,-326.7 171.41,-317.3 164.48,-316.31"/>
<polygon fill="#381526" stroke="#381526" points="174.86,-293.26 172.81,-282.86 167.93,-292.26 174.86,-293.26"/>
</g>
<!-- system.ruby.l2_cntrl0 -->
<g id="node12" class="node">
<title>system.ruby.l2_cntrl0</title>
<path fill="#e5bcd0" stroke="#000000" d="M12,-220.88C12,-220.88 56,-220.88 56,-220.88 62,-220.88 68,-226.88 68,-232.88 68,-232.88 68,-244.88 68,-244.88 68,-250.88 62,-256.88 56,-256.88 56,-256.88 12,-256.88 12,-256.88 6,-256.88 0,-250.88 0,-244.88 0,-244.88 0,-232.88 0,-232.88 0,-226.88 6,-220.88 12,-220.88"/>
<text text-anchor="middle" x="34" y="-235.18" font-family="Arial" font-size="14.00" fill="#000000">l2_cntrl0</text>
</g>
<!-- system.ruby.l2_cntrl0&#45;&#45;system.ruby.network.routers4 -->
<g id="edge16" class="edge">
<title>system.ruby.l2_cntrl0&#45;&#45;system.ruby.network.routers4</title>
<path fill="none" stroke="#381526" d="M78.03,-222.74C78.13,-222.7 78.24,-222.66 78.34,-222.62"/>
<polygon fill="#381526" stroke="#381526" points="76.62,-219.53 68.43,-226.25 79.03,-226.1 76.62,-219.53"/>
<polygon fill="#381526" stroke="#381526" points="74.77,-227.66 82.95,-220.93 72.36,-221.09 74.77,-227.66"/>
</g>
<!-- system.ruby.dir_cntrl0 -->
<g id="node13" class="node">
<title>system.ruby.dir_cntrl0</title>
<path fill="#e5bcd0" stroke="#000000" d="M294.36,-266.85C294.36,-266.85 342.36,-266.85 342.36,-266.85 348.36,-266.85 354.36,-272.85 354.36,-278.85 354.36,-278.85 354.36,-290.85 354.36,-290.85 354.36,-296.85 348.36,-302.85 342.36,-302.85 342.36,-302.85 294.36,-302.85 294.36,-302.85 288.36,-302.85 282.36,-296.85 282.36,-290.85 282.36,-290.85 282.36,-278.85 282.36,-278.85 282.36,-272.85 288.36,-266.85 294.36,-266.85"/>
<text text-anchor="middle" x="318.36" y="-281.15" font-family="Arial" font-size="14.00" fill="#000000">dir_cntrl0</text>
</g>
<!-- system.ruby.dir_cntrl0&#45;&#45;system.ruby.network.routers5 -->
<g id="edge17" class="edge">
<title>system.ruby.dir_cntrl0&#45;&#45;system.ruby.network.routers5</title>
<path fill="none" stroke="#381526" d="M287.38,-260.59C286.88,-260.2 286.37,-259.8 285.86,-259.41"/>
<polygon fill="#381526" stroke="#381526" points="285.29,-263.4 295.32,-266.81 289.61,-257.89 285.29,-263.4"/>
<polygon fill="#381526" stroke="#381526" points="287.8,-256.48 277.77,-253.07 283.48,-261.99 287.8,-256.48"/>
</g>
</g>
</svg>
